inDegrees=no
num_controls=7
num_derivatives=13
num_iterations=83
num_multipliers=7
num_parameters=0
num_slacks=7
num_states=26
objective=0.453024
objective_accelerations=0.048908
objective_balance=0.001052
objective_effort=0.037813
objective_height=0.359635
objective_ligament=0.005616
solver_duration=936.027074
status=Solve_Succeeded
success=true
DataType=double
version=3
OpenSimVersion=4.5
endheader
time	/jointset/ground_pelvis/pelvis_tilt/value	/jointset/ground_pelvis/pelvis_tx/value	/jointset/ground_pelvis/pelvis_ty/value	/jointset/hip_r/hip_flexion_r/value	/jointset/hip_r/hip_adduction_r/value	/jointset/hip_r/hip_rotation_r/value	/jointset/back/lumbar_extension/value	/jointset/patellofemoral_r/patellar_flexion_r/value	/jointset/knee_r/knee_flexion_r/value	/jointset/knee_r/knee_adduction_r/value	/jointset/knee_r/knee_rotation_r/value	/jointset/ankle_r/ankle_angle_r/value	/jointset/subtalar_r/subtalar_angle_r/value	/jointset/ground_pelvis/pelvis_tilt/speed	/jointset/ground_pelvis/pelvis_tx/speed	/jointset/ground_pelvis/pelvis_ty/speed	/jointset/hip_r/hip_flexion_r/speed	/jointset/hip_r/hip_adduction_r/speed	/jointset/hip_r/hip_rotation_r/speed	/jointset/back/lumbar_extension/speed	/jointset/patellofemoral_r/patellar_flexion_r/speed	/jointset/knee_r/knee_flexion_r/speed	/jointset/knee_r/knee_adduction_r/speed	/jointset/knee_r/knee_rotation_r/speed	/jointset/ankle_r/ankle_angle_r/speed	/jointset/subtalar_r/subtalar_angle_r/speed	/forceset/tau_hip_flexion_r	/forceset/tau_hip_adduction_r	/forceset/tau_hip_rotation_r	/forceset/tau_knee_flexion_r	/forceset/tau_ankle_angle_r	/forceset/tau_subtalar_angle_r	/forceset/tau_lumbar_extension	lambda_cid13_p0	lambda_cid14_p0	lambda_cid14_p1	lambda_cid14_p2	lambda_cid14_p3	lambda_cid14_p4	lambda_cid14_p5	/jointset/ground_pelvis/pelvis_tilt/accel	/jointset/ground_pelvis/pelvis_tx/accel	/jointset/ground_pelvis/pelvis_ty/accel	/jointset/hip_r/hip_flexion_r/accel	/jointset/hip_r/hip_adduction_r/accel	/jointset/hip_r/hip_rotation_r/accel	/jointset/back/lumbar_extension/accel	/jointset/patellofemoral_r/patellar_flexion_r/accel	/jointset/knee_r/knee_flexion_r/accel	/jointset/knee_r/knee_adduction_r/accel	/jointset/knee_r/knee_rotation_r/accel	/jointset/ankle_r/ankle_angle_r/accel	/jointset/subtalar_r/subtalar_angle_r/accel	gamma_cid13_p0	gamma_cid14_p0	gamma_cid14_p1	gamma_cid14_p2	gamma_cid14_p3	gamma_cid14_p4	gamma_cid14_p5
0.5	-0.1331835525221264	0.0225994550058771	0.8043849266171014	0.897498326025191	-0.2180054283142663	-0.1368520150156857	-0.6477532961627624	0.9649827616428593	0.9649827616428506	-0.07234774041436798	0.1745253836818004	0.2969341206532723	0.1473682920555351	-0.360584821275633	-0.2041946296153391	-0.5117197085477323	1.881793707124337	-0.03989484337180579	0.1931177979114927	-0.7322409722502229	1.954450901567208	1.954450901567172	-0.4121779555157924	-0.0003602161804279956	0.5322192207146548	0.1550440791473975	-0.1936799651457052	0.01481228759255981	0.0170977062680642	-0.2967120747846784	0.01134754468629933	-0.003075017773426567	0.2380339455257493	-8.088425968879736	-39.26641076491019	-8.063286744308684	1.539009995277315	-4.077575361330653	-640.9691277024178	57.93213089938774	0.3343173878891829	0.5897636291522023	-0.4213004553126578	-1.251822784294613	-0.1978803802735243	-0.4211034219980332	1.790589548981728	-1.372712693055361	-1.372712693055358	0.5693982601406274	-0.04422211774104927	-0.6300210484305769	-0.4101289511657235	-7.264308023588732e-08	8.346412498211621e-08	1.674562978601869e-06	3.241901358506541e-07	-2.135913494112259e-07	-1.33464901782785e-07	1.140418941208518e-06
0.51	-0.1367718714356757	0.02058718482916595	0.7992478296559039	0.9162508163604322	-0.2184145479846906	-0.1349438456898826	-0.654985597633554	0.9844556726864772	0.9844556726864714	-0.07644140806317504	0.1745216520955269	0.302223851355558	0.148897282500863	-0.3570155387518152	-0.1982413275471816	-0.5155862902870553	1.868451850494869	-0.04192130327281547	0.1885405143222362	-0.7141377523012894	1.939879572514592	1.9398795725146	-0.4065008103359933	-0.0003819759886061256	0.5256524694929245	0.1507176084544129	-0.2000188439123639	0.01591344521799061	0.01741130931912676	-0.3017389470732603	0.01059834134575212	-0.002829708957834044	0.2439769731346895	-7.149418957176468	-39.83613745526267	-8.252116431721308	1.792550300314703	-4.041937895737971	-645.921569914207	58.09884752188592	0.3777635971489118	0.6007764269738837	-0.3523521277855691	-1.41322571661491	-0.203677672403009	-0.4724565782582129	1.832423658747577	-1.537090611816335	-1.537090611809681	0.5753341709134705	0.01962707207884469	-0.6812221788775059	-0.4490148374688677	-5.770337979217088e-08	1.183632427011838e-07	1.785888142955275e-06	5.798634732085222e-07	-2.425952844001097e-07	-1.173805958333943e-07	1.239021366379046e-06
0.52	-0.1403225915414792	0.01863498025940187	0.7940754638584046	0.9348623164065124	-0.2188436620296084	-0.1330807323501324	-0.6620344198166761	1.003775320919498	1.003775320919445	-0.08047661195538787	0.1745178589080598	0.3074456705416581	0.1503819864974402	-0.3530650597271829	-0.1921815082259254	-0.5187734758081138	1.853595649291716	-0.04389371826936947	0.1841066006982354	-0.6955451147164315	1.923798339443912	1.923798339443964	-0.4004852041956426	-0.0003725364193801267	0.5186369174778647	0.1461867893972678	-0.2063577226790209	0.01701460284345966	0.0177249123698732	-0.306765819361882	0.009849138005215665	-0.002584400142165821	0.2499200007436288	-6.27114786341798	-40.40354153686552	-8.434092640300115	2.037635361176743	-4.032226357033928	-650.8533402435852	58.28690267880573	0.4105566880519849	0.6110670797720094	-0.285421211659752	-1.554691699031632	-0.1870713993824354	-0.392429428946906	1.888473076166517	-1.674693496668174	-1.67469349666817	0.6370904522509878	-0.03798224226020462	-0.7197812070964098	-0.4509986239978024	-4.704104766238092e-08	1.259569695488726e-07	1.718435587850926e-06	6.177940063319282e-07	-2.397991903620545e-07	-1.110248528120417e-07	1.230476420718593e-06
0.53	-0.1438320519914349	0.01674380226312281	0.7888746809515149	0.95331786484703	-0.2192921314882568	-0.1312611449485981	-0.6688950403702741	1.022926544150236	1.022926544150201	-0.08445006013090139	0.1745141333275143	0.3125950203891807	0.151820455982058	-0.3487758992935984	-0.1860459656821183	-0.521263112563328	1.837272667191986	-0.04578660972894361	0.1798408998902087	-0.676517198839293	1.906184765248678	1.906184765248719	-0.3941459440648838	-0.000372834408766857	0.5111497190628759	0.1414741984481769	-0.2125221360868409	0.01810904784970008	0.01798893547313877	-0.3120105586656259	0.009044027434523103	-0.002413335021567743	0.2556782335299628	-5.454121018238769	-41.01185953159096	-8.656054398816275	2.289753900719347	-3.882845957547899	-655.9557273147228	58.44244075483862	0.4457838928162584	0.6159689779435562	-0.2127574937537571	-1.70728728485612	-0.1881865005419093	-0.4391996737228732	1.919220417959852	-1.843912311005486	-1.843912311007258	0.6413378257076489	0.01908568456329563	-0.7757347034566712	-0.4859867381463462	-3.809724222256839e-08	1.330436136779564e-07	1.6596979642082e-06	6.47411243313647e-07	-2.383472927760103e-07	-1.031197093027182e-07	1.225945305654245e-06
0.54	-0.1472970832026892	0.01491421391953376	0.7836525971598129	0.9716029463026705	-0.2197590875577614	-0.129483326408541	-0.675563527850206	1.041893787053003	1.041893787052999	-0.08835831689866305	0.174510432619449	0.3176669891436024	0.1532108800756285	-0.3441792119878458	-0.1798635776879245	-0.5230336527705963	1.819502252315759	-0.04759104044039843	0.175752828402488	-0.657118499983273	1.887002273851263	1.887002273851292	-0.3874469226453503	-0.0003675619245056661	0.503160698857625	0.1365777111878209	-0.2186865494946635	0.01920349285594262	0.01825295857646264	-0.3172552979693635	0.008238916863830409	-0.002242269900968485	0.2614364663162945	-4.698331081682724	-41.61841856329823	-8.871723778226128	2.534035007214523	-3.759062218125766	-661.0470307808737	58.61608891363349	0.4720620624854935	0.6204361698494189	-0.1416019020705725	-1.844178254331071	-0.1693792497585866	-0.3569035648857308	1.962629671942704	-1.988476937104558	-1.988476937104554	0.7090427100059737	-0.03686814753059253	-0.8201455651487408	-0.487777886250822	-3.10547854610288e-08	1.395692301183707e-07	1.610602392395353e-06	6.67830790947116e-07	-2.383825912645316e-07	-9.350033546627797e-08	1.225855024440905e-06
0.55	-0.1507146321138309	0.01314666244370061	0.7784163975320783	0.9897032228459659	-0.2202435848475084	-0.1277455569528823	-0.6820361366605832	1.060661643700536	1.060661643700544	-0.09219804218007242	0.1745067505163969	0.3226567870299271	0.1545515921457515	-0.3392753523486894	-0.1736402610327735	-0.5240856444748356	1.800313937975534	-0.04929041911998975	0.1718213998605861	-0.6373444073717649	1.866330615157479	1.866330615157531	-0.3804582276726088	-0.0003672309312705338	0.4947368158577528	0.1315471612628569	-0.2248241678305412	0.02022613895591609	0.01843997379475185	-0.3224789183292486	0.00735622402283168	-0.002073075831002478	0.267145783678953	-4.003527893766534	-42.25046071459792	-9.085940523325332	2.770399137543837	-3.614132342778673	-666.1421175858542	58.79095546210672	0.507850421218468	0.6242002000501312	-0.06892121003198391	-1.992004249891942	-0.1673478193956258	-0.4082615637607968	1.99362726370999	-2.142270967522237	-2.142270967518774	0.6999691549250296	0.01891509102727862	-0.8628591535547619	-0.5129967722688388	-2.369027323654331e-08	1.450971521179771e-07	1.549873025068312e-06	6.837585963210854e-07	-2.367261150628451e-07	-8.395665638259677e-08	1.217521351618281e-06
